<svg width="327" height="283" viewBox="0 0 327 283" fill="none" xmlns="http://www.w3.org/2000/svg">
<g clip-path="url(#clip0_462_363)">
<path fill-rule="evenodd" clip-rule="evenodd" d="M153.222 69.027L106.044 21.8387L98.8387 29.0435L146.027 76.2218C144.246 79.2544 143.147 82.7347 143.147 86.5C143.147 97.7246 152.275 106.853 163.5 106.853C174.725 106.853 183.853 97.7246 183.853 86.5C183.853 75.2754 174.725 66.1471 163.5 66.1471C159.735 66.1471 156.254 67.2461 153.222 69.027Z" fill="#FBBA21"/>
<path d="M163.5 0C211.228 0 250 38.7724 250 86.5C250 134.228 211.228 173 163.5 173C115.772 173 77 134.228 77 86.5C77 70.93 81.1724 55.6653 89.11 42.4359L92.2647 37.1441L94.9105 39.4847L134.09 78.6641C133.348 81.21 132.971 83.8482 132.971 86.5C132.971 103.291 146.709 117.029 163.5 117.029C180.291 117.029 194.029 103.291 194.029 86.5C194.029 69.7088 180.291 55.9705 163.5 55.9705C161.77 55.9705 160.04 56.1742 158.412 56.4795V0H163.5Z" fill="url(#paint0_linear_462_363)"/>
</g>
<path d="M19.6175 258.964C18.3937 259.117 17.4841 258.962 16.8886 258.499C16.289 258.003 15.8939 256.995 15.7034 255.473C15.575 254.448 15.5107 253.129 15.5103 251.517C15.5389 249.867 15.6252 247.605 15.7693 244.732C15.979 239.431 16.0938 234.848 16.1136 230.983C16.1131 228.564 16.0134 226.561 15.8146 224.973C15.6282 223.485 14.9893 222.809 13.8978 222.946C13.0379 223.053 12.0519 223.63 10.94 224.676C9.85696 225.686 8.70791 227.24 7.49283 229.341C7.10847 230.027 6.63515 230.406 6.07288 230.476C5.60983 230.534 5.16947 230.371 4.7518 229.987C4.36307 229.565 4.1335 229.073 4.06309 228.511C3.99682 227.981 4.02978 227.44 4.16196 226.886C4.32308 226.295 4.60821 225.621 5.01736 224.864C6.32747 222.449 7.88369 220.524 9.68601 219.089C11.4842 217.621 13.359 216.765 15.3104 216.52C17.1296 216.292 18.5912 216.697 19.6953 217.735C20.8325 218.768 21.5399 220.393 21.8174 222.609C21.9292 223.502 21.979 224.571 21.9669 225.815C21.9506 227.027 21.924 228.021 21.8869 228.798C21.8499 229.576 21.8169 230.117 21.7881 230.423C22.9982 224.796 24.645 220.777 26.7282 218.366C28.8073 215.922 31.2526 214.524 34.064 214.172C36.2138 213.903 37.9959 214.452 39.4102 215.82C40.8576 217.184 41.7552 219.256 42.1031 222.034C42.2398 223.125 42.2608 224.5 42.166 226.158C43.2482 221.387 44.7731 217.87 46.7406 215.608C48.7082 213.346 51.1307 212.035 54.0082 211.674C56.3235 211.385 58.1862 211.907 59.5963 213.242C61.0395 214.573 61.9289 216.578 62.2644 219.257C62.4466 220.713 62.4532 222.509 62.2842 224.647L61.0346 239.215C60.9109 240.91 60.9236 242.353 61.0727 243.544C61.2467 244.933 61.6914 245.935 62.4068 246.551C63.1552 247.163 64.1083 247.396 65.2659 247.251C66.3574 247.115 67.3702 246.618 68.3044 245.762C69.2717 244.902 70.3609 243.54 71.5719 241.675C71.9108 241.162 72.3283 240.874 72.8244 240.812C73.2544 240.759 73.61 240.916 73.8912 241.283C74.2055 241.647 74.4062 242.176 74.4931 242.871C74.6547 244.161 74.4688 245.226 73.9357 246.065C72.4767 248.364 70.9639 250.099 69.3971 251.269C67.8304 252.44 66.121 253.141 64.2688 253.373C61.4574 253.725 59.1544 253.173 57.3597 251.718C55.5608 250.23 54.4854 248.081 54.1334 245.269C53.889 243.318 53.9318 240.44 54.2617 236.636L55.1093 227.309C55.1382 227.003 55.1877 226.459 55.2578 225.678C55.3279 224.896 55.3712 224.169 55.3876 223.495C55.3998 222.788 55.3645 222.103 55.2817 221.442C55.1367 220.284 54.7975 219.453 54.2641 218.949C53.7595 218.408 53.0938 218.189 52.267 218.292C50.7124 218.487 49.2015 219.701 47.7343 221.934C46.296 224.129 45.0895 227.64 44.1148 232.465C43.1732 237.286 42.6866 243.461 42.6552 250.99C42.6722 253.003 42.4265 254.395 41.9181 255.164C41.4387 255.896 40.554 256.342 39.264 256.504C38.1395 256.645 37.2795 256.484 36.684 256.021C36.1216 255.554 35.7493 254.592 35.5671 253.137C35.3973 251.781 35.3576 249.989 35.4481 247.76C35.5344 245.499 35.6723 242.844 35.8619 239.797C36.381 231.602 36.4956 226.347 36.2057 224.032C36.0483 222.775 35.6843 221.88 35.1136 221.347C34.576 220.81 33.8276 220.601 32.8685 220.721C31.2478 220.924 29.6935 222.059 28.2055 224.127C26.7134 226.161 25.4345 229.631 24.3689 234.534C23.3322 239.401 22.7672 245.888 22.6738 253.996C22.6535 255.712 22.4533 256.929 22.0731 257.649C21.7259 258.364 20.9074 258.802 19.6175 258.964ZM95.6299 238.057C96.0599 238.004 96.4176 238.177 96.703 238.578C97.0173 238.942 97.2137 239.438 97.2924 240.066C97.3877 240.827 97.3465 241.437 97.1688 241.896C96.9911 242.355 96.6749 242.781 96.2202 243.174L87.496 250.767C87.0965 257.77 86.1158 263.352 84.5538 267.512C83.0291 271.7 80.6957 273.991 77.5536 274.385C75.8668 274.596 74.4279 274.239 73.2369 273.313C72.0501 272.42 71.3511 271.13 71.1399 269.444C70.9452 267.889 71.0937 266.258 71.5854 264.55C72.1101 262.838 73.1991 260.804 74.8524 258.447C76.5429 256.119 78.9878 253.377 82.1872 250.222L82.1932 249.062C82.2715 247.809 82.3165 246.023 82.3284 243.704C81.9651 246.168 81.2668 248.103 80.2335 249.509C79.1961 250.882 78.0158 251.651 76.6928 251.817C75.2045 252.003 73.8958 251.479 72.7668 250.243C71.6667 248.969 70.9883 247.307 70.7315 245.257C70.4209 242.776 70.3026 240.49 70.3765 238.398C70.4464 236.273 70.7167 234.005 71.1875 231.594C71.394 230.561 71.768 229.792 72.3095 229.287C72.851 228.782 73.7667 228.449 75.0566 228.288C75.7843 228.197 76.2949 228.25 76.5885 228.449C76.9152 228.643 77.1075 228.972 77.1655 229.435C77.1986 229.699 77.1285 230.615 76.9552 232.182C76.7777 233.447 76.6519 234.589 76.5777 235.606C76.4829 236.995 76.4149 238.33 76.3739 239.612C76.3287 240.861 76.3558 241.882 76.4552 242.676C76.6126 243.933 77.0385 244.517 77.7331 244.43C78.2292 244.368 78.779 243.796 79.3824 242.712C80.0189 241.625 80.6242 240.02 81.1985 237.899C81.8058 235.774 82.322 233.19 82.7472 230.147C82.8876 229.121 83.1954 228.361 83.6708 227.864C84.1792 227.364 84.9792 227.045 86.0706 226.909C86.8314 226.813 87.373 226.846 87.6955 227.008C88.018 227.169 88.2083 227.481 88.2663 227.944C88.3698 228.771 88.296 231.669 88.0449 236.639L87.7552 244.788C90.0618 242.551 92.3229 240.487 94.5385 238.597C94.9354 238.279 95.2992 238.099 95.6299 238.057ZM77.4967 269.504C78.3236 269.401 79.1296 268.325 79.9147 266.279C80.6998 264.232 81.3254 260.912 81.7916 256.318C79.5141 258.787 77.9062 260.97 76.9681 262.868C76.0672 264.795 75.6996 266.42 75.8653 267.743C75.9357 268.305 76.0929 268.756 76.3369 269.095C76.614 269.43 77.0006 269.566 77.4967 269.504ZM115.466 246.962C111.53 247.455 108.018 247.172 104.929 246.114C101.836 245.024 99.3467 243.253 97.4608 240.801C95.575 238.35 94.4125 235.371 93.9735 231.865C93.3647 227.003 93.7337 222.573 95.0807 218.575C96.4608 214.572 98.5935 211.349 101.479 208.905C104.36 206.428 107.719 204.949 111.556 204.468C115.128 204.021 117.956 204.608 120.04 206.228C122.12 207.815 123.348 210.113 123.725 213.123C123.978 215.141 123.817 216.807 123.243 218.122C122.701 219.433 121.769 220.171 120.446 220.337C119.52 220.453 118.766 220.329 118.182 219.965C117.599 219.601 117.256 219.006 117.153 218.179C117.115 217.881 117.113 217.327 117.146 216.517C117.22 215.5 117.22 214.694 117.146 214.098C116.769 211.089 114.976 209.785 111.768 210.186C109.585 210.46 107.59 211.432 105.784 213.102C103.977 214.773 102.636 217.074 101.76 220.006C100.88 222.904 100.678 226.255 101.155 230.059C101.652 234.028 103.145 236.965 105.634 238.871C108.12 240.743 111.529 241.408 115.861 240.865C118.011 240.596 120.145 240.06 122.261 239.258C124.407 238.418 126.749 237.268 129.287 235.808C129.758 235.547 130.159 235.396 130.49 235.355C131.019 235.289 131.441 235.438 131.755 235.801C132.07 236.165 132.266 236.661 132.345 237.29C132.597 239.307 131.692 240.932 129.63 242.165C127.41 243.484 125.057 244.551 122.573 245.366C120.117 246.144 117.748 246.676 115.466 246.962ZM152.264 226.632C152.694 226.578 153.052 226.752 153.337 227.153C153.622 227.554 153.807 228.085 153.889 228.746C154.088 230.334 153.727 231.337 152.805 231.755C150.907 232.698 148.774 233.368 146.405 233.765C146.124 236.622 145.164 239.01 143.523 240.929C141.878 242.815 139.881 243.904 137.533 244.199C135.548 244.447 133.785 244.181 132.242 243.4C130.733 242.614 129.515 241.474 128.589 239.977C127.662 238.481 127.083 236.806 126.851 234.954C126.536 232.44 126.736 230.148 127.451 228.076C128.162 225.972 129.292 224.268 130.842 222.965C132.388 221.629 134.187 220.833 136.237 220.576C138.751 220.262 140.878 220.885 142.619 222.448C144.389 223.973 145.566 225.993 146.15 228.506C147.692 228.212 149.502 227.65 151.582 226.818C151.838 226.719 152.066 226.657 152.264 226.632ZM137.271 238.89C138.329 238.757 139.185 238.214 139.838 237.258C140.524 236.299 140.898 234.992 140.96 233.339C139.847 232.772 138.94 231.962 138.237 230.908C137.567 229.85 137.153 228.692 136.996 227.435C136.929 226.906 136.913 226.371 136.946 225.829L136.698 225.86C135.375 226.026 134.347 226.81 133.616 228.211C132.913 229.576 132.707 231.416 132.997 233.731C133.225 235.55 133.746 236.896 134.561 237.768C135.408 238.636 136.312 239.01 137.271 238.89ZM156.344 241.843C154.856 242.029 153.547 241.505 152.418 240.269C151.318 238.995 150.64 237.333 150.383 235.283C150.072 232.802 149.954 230.516 150.028 228.424C150.098 226.299 150.368 224.031 150.839 221.62C151.045 220.587 151.419 219.818 151.961 219.313C152.502 218.808 153.418 218.475 154.708 218.314C155.436 218.223 155.946 218.276 156.24 218.475C156.567 218.669 156.759 218.998 156.817 219.461C156.85 219.725 156.78 220.641 156.607 222.208C156.429 223.473 156.303 224.615 156.229 225.632C156.002 229.187 155.962 231.544 156.107 232.702C156.194 233.396 156.338 233.882 156.541 234.159C156.74 234.403 157.021 234.502 157.384 234.456C157.881 234.394 158.43 233.822 159.034 232.738C159.67 231.651 160.276 230.046 160.85 227.925C161.457 225.8 161.973 223.216 162.399 220.173C162.539 219.147 162.847 218.387 163.322 217.89C163.831 217.39 164.631 217.071 165.722 216.935C166.483 216.839 167.024 216.872 167.347 217.034C167.665 217.162 167.856 217.474 167.918 217.97C168.021 218.797 167.891 221.114 167.528 224.922C167.133 229.272 166.997 231.943 167.121 232.935C167.2 233.563 167.394 234.043 167.704 234.374C168.01 234.671 168.378 234.793 168.808 234.739C169.47 234.656 170.197 234.162 170.991 233.257C171.813 232.314 172.872 230.837 174.165 228.828C174.504 228.315 174.922 228.028 175.418 227.965C175.848 227.912 176.203 228.069 176.485 228.437C176.799 228.8 176.999 229.33 177.086 230.024C177.252 231.347 177.066 232.412 176.529 233.218C175.326 235.149 173.968 236.781 172.456 238.112C170.976 239.44 169.194 240.234 167.11 240.495C165.523 240.694 164.272 240.229 163.358 239.1C162.477 237.968 161.898 236.293 161.62 234.077C161.34 236.397 160.714 238.239 159.742 239.603C158.767 240.935 157.634 241.681 156.344 241.843ZM177.723 239.166C176.466 239.323 175.49 238.774 174.795 237.517C174.134 236.256 173.62 234.17 173.256 231.26C172.718 226.96 172.818 222.798 173.557 218.775C173.735 217.779 174.127 217.024 174.735 216.512C175.372 215.962 176.302 215.61 177.526 215.457C178.187 215.374 178.66 215.399 178.946 215.531C179.231 215.663 179.403 215.961 179.461 216.424C179.527 216.953 179.428 218.175 179.164 220.089C178.999 221.453 178.879 222.644 178.805 223.661C178.731 224.678 178.719 225.923 178.768 227.395C179.504 224.414 180.438 221.945 181.57 219.989C182.702 218.033 183.866 216.594 185.061 215.672C186.288 214.746 187.448 214.214 188.54 214.077C190.689 213.808 191.899 214.749 192.168 216.898C192.33 218.188 192.258 220.566 191.953 224.031C191.685 226.987 191.608 228.928 191.724 229.854C191.89 231.177 192.453 231.778 193.412 231.658C194.073 231.576 194.801 231.081 195.594 230.176C196.417 229.233 197.475 227.757 198.769 225.747C199.108 225.234 199.525 224.947 200.021 224.885C200.451 224.831 200.807 224.988 201.088 225.356C201.402 225.719 201.603 226.249 201.69 226.943C201.856 228.266 201.67 229.331 201.133 230.137C199.93 232.068 198.572 233.7 197.059 235.031C195.579 236.359 193.797 237.153 191.714 237.414C190.027 237.625 188.693 237.305 187.713 236.454C186.729 235.569 186.121 234.201 185.889 232.348C185.773 231.422 185.798 229.74 185.962 227.3C186.132 225.163 186.166 223.697 186.067 222.903C186.001 222.374 185.786 222.132 185.422 222.178C184.992 222.231 184.45 222.87 183.797 224.094C183.173 225.281 182.562 226.836 181.963 228.758C181.397 230.677 180.992 232.676 180.748 234.756C180.579 236.356 180.282 237.468 179.856 238.093C179.459 238.68 178.748 239.037 177.723 239.166ZM219.524 222.443C219.954 222.389 220.309 222.546 220.59 222.914C220.905 223.277 221.105 223.807 221.192 224.501C221.358 225.824 221.172 226.889 220.635 227.695C219.432 229.626 218.058 231.26 216.512 232.595C214.966 233.931 213.101 234.736 210.918 235.009C204.171 235.854 200.203 231.53 199.014 222.038C198.832 220.582 198.698 219.104 198.61 217.603L196.675 217.846C195.683 217.97 194.982 217.873 194.573 217.555C194.197 217.232 193.959 216.674 193.859 215.88C193.628 214.028 194.256 213.009 195.744 212.823L198.572 212.468C198.679 208.76 199.122 205.328 199.903 202.173C200.684 199.019 201.773 196.447 203.17 194.458C204.6 192.464 206.258 191.35 208.143 191.114C209.532 190.94 210.7 191.415 211.647 192.539C212.594 193.664 213.184 195.152 213.416 197.004C214.058 202.131 212.467 206.865 208.643 211.207L214.2 210.512C214.729 210.445 215.124 210.513 215.385 210.716C215.645 210.918 215.815 211.334 215.893 211.962C216.179 214.245 214.453 215.62 210.716 216.088L204.663 216.846C204.804 218.508 204.932 219.802 205.048 220.728C205.479 224.168 206.178 226.532 207.146 227.822C208.147 229.108 209.524 229.641 211.277 229.421C212.699 229.243 213.902 228.656 214.886 227.659C215.87 226.663 216.998 225.211 218.271 223.305C218.61 222.792 219.028 222.505 219.524 222.443ZM207.4 196.044C206.904 196.106 206.42 196.805 205.949 198.141C205.507 199.439 205.143 201.232 204.859 203.518C204.603 205.767 204.461 208.254 204.432 210.979C206.173 209.048 207.392 206.98 208.09 204.776C208.817 202.535 209.073 200.555 208.858 198.835C208.613 196.883 208.127 195.953 207.4 196.044ZM245.053 219.246C245.483 219.192 245.839 219.349 246.12 219.717C246.434 220.081 246.635 220.61 246.722 221.304C246.888 222.627 246.702 223.692 246.164 224.498C245.015 226.322 243.705 227.93 242.234 229.324C240.758 230.685 239.226 231.464 237.639 231.663C235.125 231.978 233.022 230.746 231.331 227.968C230.161 229.895 229.084 231.223 228.1 231.951C227.15 232.674 225.98 233.123 224.591 233.297C222.573 233.55 220.809 233.015 219.3 231.692C217.82 230.332 216.928 228.445 216.626 226.03C216.295 223.384 216.55 220.866 217.393 218.476C218.232 216.053 219.538 214.009 221.311 212.342C223.114 210.638 225.222 209.501 227.636 208.93C227.461 202.435 227.967 196.812 229.152 192.061C230.367 187.273 232.413 184.699 235.29 184.338C236.712 184.16 237.967 184.658 239.055 185.832C240.176 187.002 240.9 188.893 241.227 191.506C241.691 195.211 241.324 199.657 240.126 204.846C238.928 210.035 237.135 215.433 234.746 221.04C235.119 222.942 235.572 224.279 236.105 225.052C236.672 225.821 237.303 226.162 237.997 226.075C238.89 225.963 239.75 225.453 240.577 224.543C241.403 223.633 242.478 222.155 243.801 220.108C244.14 219.595 244.557 219.308 245.053 219.246ZM235.353 189.269C234.725 189.347 234.237 190.551 233.891 192.878C233.54 195.173 233.358 198.152 233.347 201.815C233.368 205.474 233.526 209.284 233.821 213.245C236.514 204.711 237.555 197.996 236.942 193.101C236.784 191.844 236.547 190.883 236.228 190.217C235.943 189.548 235.651 189.231 235.353 189.269ZM225.7 228.069C226.328 227.99 226.925 227.663 227.492 227.088C228.054 226.481 228.727 225.422 229.513 223.913C228.958 222.168 228.542 220.188 228.265 217.972C228.165 217.178 228.037 215.884 227.879 214.09C226.131 214.88 224.763 216.294 223.775 218.332C222.816 220.334 222.48 222.475 222.765 224.758C223.068 227.172 224.046 228.276 225.7 228.069ZM267.187 212.241C267.617 212.187 267.974 212.361 268.26 212.762C268.545 213.163 268.729 213.694 268.812 214.356C269.011 215.943 268.649 216.946 267.728 217.364C265.83 218.307 263.697 218.977 261.328 219.375C261.047 222.232 260.086 224.619 258.446 226.538C256.8 228.424 254.804 229.514 252.455 229.808C250.471 230.056 248.707 229.79 247.165 229.009C245.656 228.224 244.438 227.083 243.512 225.586C242.585 224.09 242.006 222.416 241.774 220.563C241.459 218.05 241.659 215.757 242.374 213.685C243.085 211.581 244.215 209.877 245.765 208.575C247.311 207.239 249.11 206.442 251.16 206.186C253.674 205.871 255.801 206.495 257.542 208.057C259.312 209.582 260.489 211.602 261.072 214.116C262.614 213.822 264.425 213.259 266.505 212.427C266.761 212.328 266.988 212.266 267.187 212.241ZM252.194 224.499C253.252 224.367 254.108 223.823 254.761 222.868C255.447 221.908 255.821 220.602 255.883 218.948C254.77 218.382 253.863 217.571 253.159 216.517C252.489 215.459 252.076 214.301 251.918 213.045C251.852 212.515 251.835 211.98 251.868 211.438L251.62 211.469C250.297 211.635 249.27 212.419 248.539 213.821C247.836 215.185 247.63 217.025 247.92 219.34C248.147 221.159 248.669 222.505 249.483 223.377C250.331 224.245 251.235 224.619 252.194 224.499ZM301.782 208.06C301.877 208.015 302.041 207.978 302.272 207.949C302.768 207.886 303.169 208.004 303.475 208.302C303.781 208.599 303.97 209.029 304.04 209.592C304.168 210.617 304.072 211.452 303.749 212.097C303.423 212.709 302.879 213.197 302.118 213.561C300.659 214.248 299.069 214.699 297.35 214.914C295.894 215.096 294.497 215.07 293.157 214.835C292.393 216.509 291.535 218.246 290.585 220.045C289.498 222.095 288.518 223.528 287.646 224.343C286.807 225.154 285.792 225.633 284.601 225.782C283.278 225.948 282.205 225.562 281.382 224.623C280.592 223.681 279.968 222.046 279.508 219.718L278.807 216.128C278.129 219.034 277.468 221.267 276.824 222.826C276.212 224.381 275.528 225.491 274.771 226.157C274.048 226.818 273.141 227.218 272.049 227.354C270.693 227.524 269.552 227.129 268.626 226.17C267.732 225.207 267.044 223.597 266.559 221.34C265.583 216.759 264.877 212.732 264.442 209.259L264.224 207.523C264.121 206.427 264.323 205.629 264.832 205.129C265.34 204.628 266.157 204.308 267.281 204.167C268.141 204.059 268.794 204.179 269.241 204.526C269.717 204.836 270.01 205.438 270.122 206.331C270.598 210.134 271.449 215.05 272.674 221.078C274.331 216.067 275.781 210.88 277.024 205.517C277.264 204.479 277.611 203.764 278.066 203.371C278.549 202.941 279.155 202.68 279.883 202.589C280.776 202.477 281.41 202.582 281.787 202.905C282.196 203.223 282.459 203.845 282.575 204.771C283.051 208.575 283.902 213.491 285.127 219.519C286.743 216.326 287.937 213.792 288.71 211.914C288.094 211.017 287.703 209.907 287.537 208.584C287.396 207.46 287.508 206.337 287.871 205.217C288.235 204.096 288.805 203.151 289.582 202.382C290.359 201.613 291.294 201.16 292.385 201.023C293.344 200.903 294.165 201.153 294.847 201.773C295.526 202.36 295.945 203.299 296.107 204.589C296.293 206.077 296.11 207.83 295.556 209.848C296.805 209.624 298.444 209.167 300.474 208.476L301.782 208.06ZM304.952 223.234C303.695 223.391 302.719 222.842 302.024 221.585C301.363 220.324 300.849 218.238 300.485 215.328C299.947 211.028 300.047 206.867 300.786 202.844C300.964 201.847 301.356 201.093 301.964 200.58C302.601 200.03 303.531 199.678 304.755 199.525C305.416 199.442 305.889 199.467 306.175 199.599C306.46 199.731 306.632 200.029 306.69 200.492C306.756 201.021 306.657 202.243 306.393 204.157C306.228 205.522 306.108 206.712 306.034 207.73C305.96 208.747 305.948 209.991 305.998 211.463C306.733 208.482 307.667 206.013 308.799 204.057C309.932 202.102 311.095 200.663 312.29 199.74C313.517 198.814 314.677 198.282 315.769 198.146C316.827 198.013 317.656 198.195 318.256 198.691C318.884 199.15 319.265 199.908 319.397 200.967C319.505 201.827 319.526 203.47 319.46 205.897C319.382 207.956 319.358 209.908 319.387 211.752C319.412 213.562 319.564 215.576 319.841 217.792C319.999 219.049 319.848 219.991 319.389 220.62C318.959 221.211 318.165 221.579 317.008 221.724C315.916 221.861 315.087 221.679 314.521 221.179C313.954 220.679 313.601 219.867 313.46 218.742C313.294 217.419 313.252 215.207 313.334 212.106C313.4 209.411 313.387 207.699 313.296 206.971C313.23 206.442 313.015 206.2 312.651 206.246C312.221 206.3 311.679 206.939 311.026 208.163C310.402 209.349 309.791 210.904 309.192 212.827C308.626 214.745 308.221 216.744 307.977 218.824C307.808 220.424 307.511 221.536 307.085 222.161C306.688 222.748 305.977 223.106 304.952 223.234Z" fill="white"/>
<defs>
<linearGradient id="paint0_linear_462_363" x1="163.5" y1="0" x2="163.5" y2="173" gradientUnits="userSpaceOnUse">
<stop stop-color="#6877E0"/>
<stop offset="1" stop-color="#7357B2"/>
</linearGradient>
<clipPath id="clip0_462_363">
<rect width="173" height="173" fill="white" transform="translate(77)"/>
</clipPath>
</defs>
</svg>
